<svg width="22" height="35" viewBox="0 0 22 35" fill="none" xmlns="http://www.w3.org/2000/svg">
<path d="M9.55266 28.9006C10.3236 28.761 11.2191 28.7282 12.1052 28.7755C12.9904 28.8228 13.8507 28.9492 14.5477 29.1196C14.8964 29.2048 15.1976 29.2994 15.4372 29.3974C15.5792 29.4554 15.69 29.5112 15.7733 29.5611C15.8483 30.921 16.0358 32.2551 16.2649 33.5298C15.1955 33.9212 14.2272 34.0595 12.7065 34.0595C10.602 34.0595 9.3655 34.1149 8.4295 34.0325C8.43751 33.9202 8.44391 33.8056 8.44756 33.689C8.48242 32.5763 8.33028 31.2083 8.10192 29.7799C8.08368 29.6658 8.06452 29.5513 8.04517 29.4362C8.40201 29.1975 8.91588 29.0159 9.55266 28.9006ZM0.79882 23.4856C2.01257 24.1106 3.14411 24.2948 4.15654 24.1923C4.37561 25.01 4.79223 25.6863 5.27084 26.4032C5.82853 27.2386 6.48515 28.1497 7.13454 29.4821L7.18567 29.587C7.20417 29.6978 7.22266 29.808 7.24021 29.9178C7.46636 31.3323 7.60746 32.634 7.57528 33.6616C7.57271 33.7436 7.56845 33.8233 7.56369 33.9008C5.77026 33.6278 5.73625 32.693 2.28773 29.1283C1.06245 27.8617 0.662649 25.856 0.79882 23.4856ZM21.2806 18.8414C21.4647 22.657 21.3174 26.6294 21.1139 29.1283C20.7604 30.3203 19.9243 32.1735 17.0954 33.2137C16.8858 32.0221 16.7179 30.7959 16.6468 29.5582C17.5534 28.8361 19.39 26.4742 19.0117 20.7124C19.0912 20.6141 19.1723 20.5169 19.2551 20.4215C19.3656 20.2943 19.4789 20.1702 19.5948 20.0507L19.6822 19.9619C19.808 19.836 19.9342 19.7183 20.0603 19.6091C20.1019 19.5731 20.1433 19.5378 20.1848 19.5036C20.5534 19.2011 20.9212 18.9747 21.2806 18.8414ZM12.2891 7.01575C12.3561 7.03303 12.4575 7.07155 12.5932 7.1422C12.9038 7.30387 13.3152 7.59229 13.7625 7.9905C14.6572 8.78685 15.6375 9.9704 16.2073 11.3178L16.2296 11.3703L16.2645 11.4154C16.8481 12.1672 17.1537 13.1452 17.3648 14.3749C17.47 14.9875 17.5499 15.6492 17.6328 16.3647C17.7152 17.0769 17.8004 17.8408 17.9155 18.642L17.9648 19.0001C18.8384 25.6241 16.9533 28.119 16.1946 28.7968C16.0638 28.7206 15.9189 28.6517 15.7675 28.5898C15.4771 28.471 15.1325 28.3644 14.755 28.2721C13.9996 28.0875 13.085 27.9543 12.1518 27.9044C11.2196 27.8546 10.253 27.8871 9.39705 28.0421C8.76863 28.1559 8.16756 28.3414 7.68282 28.6332C7.07871 27.4806 6.47775 26.6395 5.99672 25.9189C5.48182 25.1476 5.11678 24.5311 4.95571 23.7868C5.52515 22.688 6.29598 20.6632 6.95865 18.4502C7.64309 16.1644 8.22723 13.628 8.35314 11.6479C8.82945 10.4374 9.10472 9.95282 9.35785 9.68592C9.47876 9.55844 9.60431 9.47084 9.77831 9.37305C9.86892 9.32212 9.96623 9.27187 10.0856 9.20928C10.2026 9.14795 10.3347 9.07791 10.4817 8.99354L10.5705 8.9402C11.0046 8.66704 11.295 8.30214 11.5443 7.96102C11.7972 7.61499 12.0031 7.3029 12.2891 7.01575ZM6.82503 5.69575C6.94979 6.47176 7.08816 7.51628 7.26475 8.91004L7.29406 9.14896C7.38644 9.92528 7.44903 10.6983 7.49057 11.4594L7.48682 11.5255C7.37654 13.415 6.80862 15.909 6.12267 18.1998C5.48101 20.3427 4.74947 22.2631 4.22199 23.3057C3.27104 23.4358 2.14577 23.2697 0.879435 22.5354C1.47752 17.1216 4.48838 10.1782 6.82503 5.69575ZM19.1034 8.67368C20.3677 10.4985 20.9828 14.1363 21.2296 17.9394L21.1544 17.9618C21.1294 17.9696 21.1044 17.9777 21.0795 17.9861C21.0297 18.0029 20.9802 18.021 20.931 18.0401C20.2577 18.3026 19.6353 18.7816 19.1033 19.3075C19.0905 19.3201 19.0776 19.3325 19.0649 19.3452C19.0111 19.3991 18.9578 19.4539 18.9051 19.5094C18.8825 19.3054 18.8578 19.0975 18.8299 18.8859L18.7793 18.518C18.728 18.1612 18.6829 17.812 18.6411 17.47C18.5906 17.0579 18.545 16.6563 18.4996 16.2643C18.4169 15.5503 18.3346 14.8665 18.2249 14.2274C18.1078 13.5455 17.9569 12.8991 17.7321 12.3039L17.7683 12.1409C17.7686 12.1394 17.9215 11.5426 18.1258 10.9127C18.2381 10.586 18.3638 10.255 18.4987 9.92501C18.605 9.66531 18.7172 9.40746 18.8319 9.15373C18.863 9.08497 18.8938 9.01628 18.9253 8.94821L19.0743 8.63176V8.63142C19.084 8.64548 19.0937 8.6596 19.1034 8.67368ZM13.2729 1.46325C14.9028 1.93637 16.3583 4.59172 18.5078 7.79828C18.5068 7.80229 18.5054 7.80628 18.5045 7.81038C18.223 8.37371 17.9428 8.97924 17.6911 9.59475C17.6522 9.68965 17.6143 9.78503 17.5769 9.88053C17.4485 10.2076 17.3288 10.5375 17.2218 10.8653C17.1926 10.9551 17.1639 11.0447 17.1366 11.1341C17.1129 11.0989 17.0887 11.0639 17.064 11.0293L16.9885 10.9263L16.9425 10.8217C16.4604 9.74426 15.7561 8.78231 15.0394 8.01879C14.9905 7.62585 14.9353 7.2316 14.8728 6.83972C14.6597 5.50547 14.3634 4.18728 13.9574 3.03342C13.7598 2.47203 13.5332 1.94147 13.2729 1.46325ZM11.8564 0.922363C12.3562 1.49557 12.7815 2.32073 13.1342 3.32294C13.5171 4.41116 13.803 5.67451 14.011 6.97741C14.0159 7.00753 14.0201 7.03775 14.0248 7.0679C13.6557 6.76702 13.3025 6.52765 12.9961 6.36819C12.8019 6.26711 12.6056 6.18701 12.4236 6.15211C12.2757 6.12375 12.0207 6.10364 11.813 6.26662L11.772 6.30173C11.3666 6.68179 11.0834 7.11289 10.8398 7.44621C10.6021 7.77135 10.3912 8.02245 10.1054 8.20198L10.0473 8.23692C9.91491 8.31287 9.79469 8.37676 9.68048 8.43664C9.56873 8.49523 9.45573 8.55357 9.35086 8.6125C9.13386 8.73446 8.92711 8.87196 8.72452 9.08556C8.55756 9.26161 8.4013 9.48181 8.23878 9.77385C8.21525 9.5317 8.1895 9.2888 8.16055 9.04552L8.13038 8.80046C7.87221 6.76271 7.69031 5.41911 7.50489 4.57189C8.2205 3.83925 9.74587 3.1862 10.8788 1.55101C11.1595 1.14589 11.4881 0.948101 11.8564 0.922363Z" fill="#FD6731"/>
</svg>
