<svg width="144" height="25" viewBox="0 0 144 25" fill="none" xmlns="http://www.w3.org/2000/svg">
<path d="M139.998 24.3607L130.305 1.4668H133.527L143.22 24.3607H139.998Z" fill="white"/>
<path d="M112.352 24.3607L122.159 1.4668H125.749L135.528 24.3607H132.278L129.338 17.5208H118.457L115.545 24.3607H112.352ZM119.502 14.7509H128.349L124.025 4.51932H123.883L119.502 14.7509Z" fill="white"/>
<path d="M93.1315 24.361V10.6812H91.4922V7.40255H94.8839V10.5681H96.071C96.542 9.53178 97.2675 8.72154 98.2473 8.13742C99.246 7.55329 100.414 7.26123 101.752 7.26123H103.137V9.97458H101.582C99.8866 9.97458 98.5771 10.4739 97.6538 11.4726C96.7305 12.4712 96.2688 13.8185 96.2688 15.5143V24.361H93.1315Z" fill="white"/>
<path d="M80.5911 24.6998C78.8199 24.6998 77.2842 24.3418 75.9841 23.6258C74.6839 22.8909 73.6759 21.8545 72.9598 20.5167C72.2627 19.1789 71.9141 17.6149 71.9141 15.8249C71.9141 14.0348 72.2627 12.4897 72.9598 11.1895C73.6759 9.87056 74.6745 8.85305 75.9558 8.13702C77.2371 7.421 78.7351 7.06299 80.4498 7.06299C82.0891 7.06299 83.5023 7.39274 84.6894 8.05223C85.8954 8.71173 86.8281 9.64444 87.4876 10.8504C88.1471 12.0563 88.4768 13.4884 88.4768 15.1465V16.4184H74.9666C75.0608 18.1896 75.5978 19.5746 76.5776 20.5732C77.5763 21.5531 78.9047 22.043 80.5629 22.043C81.7123 22.043 82.6827 21.8074 83.4741 21.3364C84.2655 20.8465 84.8119 20.1304 85.1134 19.1883H88.3355C87.921 20.9407 87.0259 22.2973 85.6504 23.2583C84.2937 24.2193 82.6073 24.6998 80.5911 24.6998ZM75.0796 14.1008H85.4243C85.2736 12.7064 84.7554 11.6229 83.8698 10.8504C83.003 10.0778 81.8536 9.69155 80.4216 9.69155C79.0084 9.69155 77.8307 10.0778 76.8885 10.8504C75.9464 11.6229 75.3434 12.7064 75.0796 14.1008Z" fill="white"/>
<path d="M61.2371 24.6997C59.8805 24.6997 58.7122 24.4547 57.7324 23.9648C56.7526 23.4561 55.98 22.7212 55.4147 21.7602H54.2276V24.3605H50.8359V21.0819H52.4753V0.618652H55.6408V10.1437H55.7539C56.2626 9.14499 57.0164 8.38186 58.015 7.85426C59.0137 7.32667 60.1819 7.06287 61.5198 7.06287C63.1214 7.06287 64.4969 7.42088 65.6463 8.1369C66.8146 8.85293 67.7096 9.87044 68.3314 11.1894C68.9532 12.5084 69.2641 14.0724 69.2641 15.8813C69.2641 17.6902 68.9438 19.2541 68.3032 20.5731C67.6814 21.8921 66.7769 22.9096 65.5898 23.6256C64.4027 24.3417 62.9518 24.6997 61.2371 24.6997ZM60.7566 21.9863C62.4525 21.9863 63.7621 21.4493 64.6854 20.3753C65.6275 19.3012 66.0986 17.8032 66.0986 15.8813C66.0986 13.9593 65.6275 12.4613 64.6854 11.3873C63.7621 10.3132 62.4525 9.77622 60.7566 9.77622C59.2115 9.77622 57.9679 10.219 57.0258 11.1046C56.1025 11.9902 55.6408 13.1679 55.6408 14.6377V17.1249C55.6408 18.5946 56.1025 19.7723 57.0258 20.6579C57.9679 21.5435 59.2115 21.9863 60.7566 21.9863Z" fill="white"/>
<path d="M20.4206 24.3601V10.6803H18.7812V7.40172H22.1729V10.002H23.5296C24.0195 9.05988 24.7261 8.34386 25.6494 7.85395C26.5915 7.3452 27.7221 7.09082 29.0411 7.09082C30.3789 7.09082 31.5095 7.35462 32.4328 7.88221C33.3749 8.40981 34.1286 9.22004 34.6939 10.3129H34.7787C35.9657 8.16485 37.916 7.09082 40.6293 7.09082C42.7208 7.09082 44.3507 7.69379 45.519 8.89971C46.6872 10.1056 47.2713 11.7638 47.2713 13.8742V24.3601H44.1058V14.3264C44.1058 11.3493 42.6549 9.86069 39.7531 9.86069C36.8702 9.86069 35.4287 11.3493 35.4287 14.3264V24.3601H32.2632V14.3264C32.2632 11.3493 30.8123 9.86069 27.9105 9.86069C26.4973 9.86069 25.4233 10.247 24.6884 11.0195C23.9536 11.7732 23.5861 12.8755 23.5861 14.3264V24.3601H20.4206Z" fill="white"/>
<rect x="2.75" y="10.8384" width="12.8162" height="3.35661" fill="white"/>
<path d="M15.9844 4.23633H3.26562V11.1328H15.3066V13.8457H3.26562V21.5898H15.9844V24.3604H0.015625V14.1943H1.62012V10.8369H0.015625V1.46582H15.9844V4.23633Z" fill="white"/>
</svg>
